<svg xmlns="http://www.w3.org/2000/svg" viewBox="0 0 500 500"><path d="M32.45 192.28s-82.17 185.6 134.18 188.2c216.35 2.6 315.24-25.9 316.22-120.33.98-94.43-76.94-182.55-212.75-183.53-135.82-.98-209.25 34.54-237.65 115.67Z" fill="#e6e6e6" opacity=".3"/><path d="M403.07 112.02H246.42l2.15 153.59H463.6v-93.06a60.53 60.53 0 0 0-60.53-60.53Z" fill="#009688"/><path d="M230.15 112.02h32.54a44.28 44.28 0 0 1 44.26 44.26v109.33H185.89V156.28a44.28 44.28 0 0 1 44.26-44.26Z" fill="#004D40"/><path d="M185.89 265.61h121.06v109.33a44.27 44.27 0 0 1-44.26 44.26h-32.54a44.27 44.27 0 0 1-44.26-44.26V265.61Z" fill="#009688"/><path opacity=".09" d="M262.67 419.21h-32.54a44.28 44.28 0 0 1-44.26-44.26V265.62h121.06v109.33a44.28 44.28 0 0 1-44.26 44.26Z" fill="#000001"/><path d="M362.94 175.32h-7.09V46.55a2.6 2.6 0 0 1 2.59-2.59h1.91a2.6 2.6 0 0 1 2.59 2.59v128.77Z" fill="#009688"/><path fill="#fff" opacity=".44" d="M358.44 43.96h1.91a2.6 2.6 0 0 1 2.59 2.59v128.77h-7.09V46.55a2.6 2.6 0 0 1 2.59-2.59Z"/><circle cx="359.6" cy="175.32" r="13.5" fill="#b2dfdb"/><path fill="#b2dfdb" d="M362.94 47.51h33.23v13.07L362.94 69V47.51z"/><path fill="#004d40" d="M329.85 265.61h58.49v21.26h-58.49z"/><path fill="#009688" d="M344.62 286.87h28.47v169.17h-28.47z"/><path fill="#fff" opacity=".44" d="M344.62 286.87h28.47v169.17h-28.47z"/><path opacity=".09" fill="#000001" d="M344.62 286.87v56.7l28.47-18.14v-38.56h-28.47z"/><ellipse fill="#b2dfdb" cx="105.84" cy="114.33" rx="62.92" ry="59.91"/><path fill="#b2dfdb" d="m135.61 158.49 39.44 19.47-28.91-36.61-10.53 17.14z"/><path d="M136.18 113.66c4.65-2.43 7.17-7.73 6.83-12.89-.38-5.8-4.29-10.26-9.91-11.7-4.86-1.25-14.47-1.08-16.63 4.58-2.72 7.12 5.55 12.02 5.53 18.79-.02 7.16-6.35 12.9-13.48 11.75-3.97-.64-7.57-2.88-10.6-5.44-2.36-2-4.53-5.32-7.65-6.17-3.24-.88-6.24 1.89-8.43 3.91-2.53 2.34-4.6 5.29-5.16 8.75-1.16 7.16 4.52 11.34 10.94 12.29 3.84.57 7.77.38 11.55-.49 2.83-.66 6.28-1.68 8.03-4.2 1.96-2.81.52-5.79-1.26-8.26a53.65 53.65 0 0 0-15.76-14.5c-3.08-1.85-6.55-3.14-9.88-4.7-7.71-3.62-2.82-15.11 1.63-19.55 2.5-2.49 6.26-4.88 9.94-4.48 4.17.46 4.8 4.65 3.87 8.01-2.03 7.35-9.27 11.82-16.01 14.14-13.68 4.72-11.43 23.41-4.36 32.84 8.55 11.4 24.37 14.09 37.16 8.78 5.63-2.34 12.35-7.04 9.63-14.02-1.26-3.24-3.53-6.32-5.63-9.06-2.1-2.72-4.53-5.23-7.5-6.99-4.88-2.9-11.59-3.34-16.34.11-6.25 4.54-3.68 11.91-4.54 18.37-.38 2.82-2.02 6.82-5.29 7.12-2.1.19-3.9-1.43-5.36-2.72A55.7 55.7 0 0 1 66.1 124c-1.99-3.45-4.39-7.67-4.2-11.86.36-7.74 10.12-12.26 16.32-14.66 8.3-3.21 16.59-2.16 25.03-.11 4.07.99 8.11 2.11 12.23 2.9 3.58.68 7.68 1.53 11.17.04 5.52-2.35 7.82-9.73 8.41-15.21.3-2.78-.02-5.85-1.84-8.1-2.1-2.59-5.37-3.03-8.5-3.16-6.98-.28-15.18-.18-19.84 5.93-4.12 5.41-1.48 11.2 1.77 16.23 1.77 2.75 3.83 5.68 4.02 9.05.2 3.56-1.64 7.19-4.63 9.13-2.32 1.5-5.63 1.77-7.15 4.35-1.61 2.74.16 6.41 1.35 9a31.63 31.63 0 0 0 13.05 14.1c6.13 3.46 14.17 5.36 20.3.94s9.96-11.49 11.9-18.33c.97-3.42 1.02-6.86-1.6-9.55-2.48-2.55-6.22-4.49-9.43-5.92-5.46-2.44-13.35-3.05-17.21 2.55a9 9 0 0 0-1.14 7.94c1.01 2.83 3.59 4.34 6.4 4.94 6.95 1.49 15.64 2.29 22.28-.7 5.37-2.42 9.78-7.82 9.12-13.95-.18-1.65-2.78-1.67-2.6 0 .76 7.01-5.74 11.82-12 12.88-3.7.63-7.5.34-11.21-.07-2.98-.33-7.63-.3-9.26-3.36s.11-6.68 2.88-8.25c2.94-1.67 6.56-1.44 9.67-.41a34.9 34.9 0 0 1 9.39 5.09c1.86 1.38 2.94 3 2.78 5.39-.13 1.98-.9 4.03-1.62 5.86-2.41 6.15-7.34 14.5-14.44 15.73-6.56 1.14-13.78-2.74-18.42-7.1a29.29 29.29 0 0 1-5.58-7.14 26.8 26.8 0 0 1-1.92-4.27c-.67-1.94-1.18-3.94.82-5.17 2.42-1.48 5.01-1.93 7.09-4.03a13.25 13.25 0 0 0 3.6-6.92c1.02-5.75-2.48-10.25-5.3-14.88-1.48-2.43-2.92-5.2-2.39-8.14.57-3.2 3.25-5.65 6.11-6.93 3.64-1.63 7.82-1.57 11.72-1.45 3.39.1 7.55.09 8.9 3.88.97 2.73.34 5.92-.45 8.62-.84 2.88-1.99 6.14-4.41 8.08-3.16 2.53-7.83 1.42-11.45.71s-7.14-1.66-10.7-2.54c-6.83-1.69-13.85-3.13-20.9-2.01-6.4 1.02-13.03 4.12-18.19 8.02-4.76 3.6-7.71 8.6-6.31 14.7s5.5 12.26 9.49 17.16a54.26 54.26 0 0 0 7.3 7.47c2.03 1.69 4.41 3.19 7.16 2.7 5.01-.9 7.13-6.8 7.22-11.28.07-3.39-.6-6.96.36-10.28.86-2.98 3.17-5 6.12-5.84 6.41-1.81 12.18 1.89 16.18 6.63a49.29 49.29 0 0 1 5.59 8.28c2.13 3.95.55 7.21-2.94 9.61-10.85 7.47-27.55 6.49-36.73-3.15a25.64 25.64 0 0 1-7.11-16.73c-.08-3.08.43-6.32 1.8-9.1 1.72-3.47 4.44-4.65 7.92-5.85 5.77-2 10.81-5.77 14.15-10.91 2.44-3.75 4.03-9.75.68-13.47-4.04-4.48-10.89-1.87-14.89 1.24a21.37 21.37 0 0 0-7.98 13.8c-.38 2.8-.43 6.17 1.26 8.59 1.6 2.28 4.3 3.15 6.76 4.16a50.72 50.72 0 0 1 16.93 11.43c2.24 2.29 4.89 4.98 6.22 7.93 1.85 4.09-3.85 5.63-6.71 6.29-5.63 1.31-17.23 1.86-19.12-5.53-.95-3.72 1.03-7.36 3.58-9.94a20.47 20.47 0 0 1 4.09-3.34c2.25-1.31 3.86-.14 5.49 1.48 4.44 4.42 9.55 8.73 15.98 9.6 10.96 1.49 19.57-10.41 14.65-20.36-1.54-3.11-4.41-5.93-4.56-9.57-.17-4.06 3.5-5.04 6.84-5.55 5.95-.9 13.07 1.07 14.68 7.58 1.18 4.78-.8 10.21-5.25 12.53-1.49.78-.17 3.02 1.31 2.25Z" fill="#fff"/></svg>
