<svg viewBox="0 0 500 500" xmlns="http://www.w3.org/2000/svg"><path class="cls-6" d="M39.74 210.77s-79.07 200.16 129.1 202.97c208.19 2.8 303.35-27.93 304.29-129.78.94-101.85-74.03-196.88-204.72-197.94-130.7-1.06-201.35 37.25-228.68 124.75z" opacity=".3" fill="#e6e6e6"/><path d="M233.63 189.68h-.1c-1.92 0-3.81-.12-5.6-.35a1.83 1.83 0 0 1-1.58-2.05c.13-1 1.05-1.68 2.05-1.58 1.64.21 3.36.32 5.13.32 1.01 0 1.88.82 1.88 1.83 0 1.01-.77 1.83-1.78 1.83zm17.98-2.93c-.79 0-1.52-.51-1.75-1.3a1.82 1.82 0 0 1 1.23-2.27c1.67-.5 3.38-1.06 5.11-1.69a1.83 1.83 0 0 1 1.24 3.44 91.26 91.26 0 0 1-5.31 1.75c-.17.05-.35.08-.52.08zm-39.17-5.41c-.55 0-1.1-.25-1.46-.72a28.12 28.12 0 0 1-2.99-5.01 1.83 1.83 0 0 1 3.3-1.56c.77 1.64 1.64 3.1 2.59 4.35a1.83 1.83 0 0 1-1.45 2.93zm61.08-3.77a1.84 1.84 0 0 1-.85-3.45c1.63-.85 3.22-1.73 4.77-2.61a1.82 1.82 0 1 1 1.8 3.18c-1.58.9-3.21 1.79-4.87 2.66-.27.14-.56.21-.85.21zm20.31-12.38a1.83 1.83 0 0 1-1.04-3.33c1.63-1.13 3.12-2.19 4.44-3.15a1.83 1.83 0 0 1 2.55.4c.59.82.41 1.96-.4 2.55-1.35.98-2.86 2.06-4.52 3.2-.32.22-.68.32-1.04.32zm-88.66-6.18c-.91 0-1.69-.67-1.81-1.6-.23-1.8-.42-3.65-.58-5.53a1.83 1.83 0 1 1 3.64-.32c.16 1.84.35 3.64.57 5.39.13 1-.58 1.92-1.58 2.04l-.23.01zm108.93-5.88a1.82 1.82 0 0 1-.76-3.48 68.21 68.21 0 0 0 4.75-2.41 1.83 1.83 0 0 1 1.78 3.2c-1.62.9-3.3 1.76-5 2.54a1.9 1.9 0 0 1-.76.17zm99.7-2.37a1.83 1.83 0 0 1-.17-3.65c1.78-.16 3.56-.41 5.27-.72a1.83 1.83 0 1 1 .66 3.6c-1.82.33-3.7.59-5.59.77h-.17zm-18.23-.62c-.09 0-.18 0-.28-.02a55.75 55.75 0 0 1-5.58-1.09 1.82 1.82 0 1 1 .93-3.53c.02 0 2 .52 5.2 1.01a1.82 1.82 0 0 1-.27 3.63zm40.6-6.66a1.83 1.83 0 0 1-1-3.36 36.6 36.6 0 0 0 4.15-3.16 1.83 1.83 0 0 1 2.42 2.74 39.77 39.77 0 0 1-4.56 3.48c-.31.2-.66.3-1 .3zm-102.68-3.73a1.83 1.83 0 0 1-1.3-3.12 66.9 66.9 0 0 0 3.61-3.9 1.83 1.83 0 0 1 2.79 2.37 71.37 71.37 0 0 1-3.81 4.13 1.8 1.8 0 0 1-1.29.53zm-129.9-4.49c-.98 0-1.79-.77-1.82-1.76l-.21-5.48a1.83 1.83 0 0 1 3.65-.15l.21 5.49a1.82 1.82 0 0 1-1.76 1.89h-.07zm247.37-9.9a1.83 1.83 0 0 1-1.68-2.54 50.05 50.05 0 0 0 1.79-4.97 1.83 1.83 0 0 1 3.5 1.06 54.8 54.8 0 0 1-1.92 5.33c-.29.7-.97 1.12-1.68 1.12zm-103.81-4.88a1.83 1.83 0 0 1-1.63-2.64c.77-1.56 1.53-3.2 2.25-4.88a1.83 1.83 0 1 1 3.36 1.44c-.75 1.75-1.54 3.45-2.34 5.07a1.83 1.83 0 0 1-1.64 1.01zm-144.89-8.99c-.93 0-1.72-.7-1.82-1.65-.18-1.82-.39-3.62-.64-5.38a1.83 1.83 0 1 1 3.62-.5c.25 1.81.47 3.65.65 5.52.1 1-.63 1.9-1.64 2h-.18zm253.08-9.31c-.99 0-1.8-.79-1.83-1.79a54.43 54.43 0 0 0-.38-5.28c-.12-1 .59-1.91 1.59-2.04a1.81 1.81 0 0 1 2.04 1.59c.23 1.86.37 3.76.41 5.65a1.83 1.83 0 0 1-1.79 1.87zm-99.98-3.97a1.83 1.83 0 0 1-1.76-2.32c.49-1.76.95-3.52 1.38-5.27a1.83 1.83 0 0 1 3.55.89 222.4 222.4 0 0 1-1.4 5.35 1.82 1.82 0 0 1-1.76 1.34zm-158.2-9.86c-.71 0-1.39-.42-1.68-1.12a37.23 37.23 0 0 0-2.35-4.64 1.83 1.83 0 1 1 3.13-1.89 40 40 0 0 1 2.59 5.11 1.82 1.82 0 0 1-1.68 2.53zm252.6-9.06c-.68 0-1.33-.38-1.65-1.03a60.61 60.61 0 0 0-2.53-4.68 1.83 1.83 0 1 1 3.14-1.88 66.37 66.37 0 0 1 2.69 4.97 1.82 1.82 0 0 1-1.64 2.62zm-88.87-4.21a1.83 1.83 0 0 1-1.78-2.25c.43-1.84.86-3.63 1.31-5.37a1.83 1.83 0 0 1 3.54.9c-.44 1.72-.87 3.49-1.29 5.3-.2.84-.95 1.41-1.78 1.41zm-179.99-2.8c-.19 0-.38-.03-.57-.09-.58-.19-1.18-.36-1.8-.51l-3.36-.81a1.83 1.83 0 0 1 .84-3.56l3.4.82c.7.17 1.39.37 2.05.59a1.82 1.82 0 0 1 1.17 2.3 1.83 1.83 0 0 1-1.74 1.26zm-23.21-4.99c-.1 0-.2 0-.3-.02-1.87-.31-3.66-.58-5.37-.82a1.83 1.83 0 1 1 .5-3.62c1.74.24 3.56.52 5.47.84a1.83 1.83 0 0 1-.3 3.63zm-29.11-2.24a1.82 1.82 0 0 1-.09-3.65c1.32-.07 2.8-.13 4.52-.1h1.08a1.83 1.83 0 0 1-.02 3.66h-1.27c-1.54 0-2.91.04-4.12.1h-.09zm307.09-4.73c-.45 0-.9-.16-1.25-.5a67.5 67.5 0 0 0-4.03-3.51 1.82 1.82 0 0 1-.27-2.57 1.82 1.82 0 0 1 2.57-.27 74.84 74.84 0 0 1 4.24 3.7 1.82 1.82 0 0 1-1.25 3.15zm-67.3-7.73a1.82 1.82 0 0 1-1.59-2.73 29.37 29.37 0 0 1 3.32-4.78 1.83 1.83 0 0 1 2.77 2.39c-1.02 1.18-2 2.59-2.9 4.18-.34.6-.96.93-1.59.93zm47.68-5.5c-.26 0-.51-.05-.76-.17a66.65 66.65 0 0 0-4.93-2.04 1.83 1.83 0 1 1 1.26-3.44c1.73.64 3.49 1.36 5.2 2.15a1.82 1.82 0 0 1-.76 3.48zm-28.37-5.84a1.83 1.83 0 0 1-.11-3.65c1.87-.11 3.77-.12 5.68-.03a1.82 1.82 0 1 1-.19 3.65 46.47 46.47 0 0 0-5.28.02h-.11z" fill="#cdcdcd"/><path fill="#B2DFDB" d="m146.01 106.76 14-71.88L42.82 45.94z"/><path fill="#B2DFDB" d="m150.41 84.19 5.61-28.83 11.87 30.61z"/><path fill="#000001" opacity=".09" d="m150.41 84.19 5.61-28.83 11.87 30.61zm.98-5.04L42.82 45.94l113.2 9.42z"/><path fill="#a5a5a5" d="m244.36 89.66 133.99 27.23-41.1 202.18-133.99-27.24z"/><path fill="#cdcdcd" d="m246.98 76.68 134 27.24-41.1 202.17-134-27.23z"/><path fill="#fff" d="m253.97 93.9 113.89 23.14-29.69 146.04-113.89-23.15z"/><path fill="#004d40" d="m263.38 186.25 60 12.19-5.07 24.92-60-12.2z"/><path fill="#009688" d="M308.14 462.2V360.97l101.23-9.04 18.08 110.27H308.14z"/><path d="m289.33 309.35 25.13 35.35v15.7l88.55-7.91-4.49-43.15s10.85-51.42-2.71-84.86c-7.32-18.06-8.41-36.04-7.85-48.75.67-15.31-21.32-18.82-25.27-4.01-1.67 6.28-2.83 19.02-2.7 31.85a37.32 37.32 0 0 1-3.33 15.7c-5.4 11.95-14.44 35.4-9.02 48.53l-10.43 51.28-47.89-9.74z" fill="#d7b6a5"/><circle cx="278.15" cy="271.36" r="10.44" fill="#fff" opacity=".42"/><path opacity=".09" fill="#000001" d="m346.17 357.57-31.71 2.83v-15.7l-25.13-35.35 47.89 9.74z"/><path d="m187.43 365.94 9.65-22.14s16.87-8.44 36.76-16.87c19.88-8.43 29.14-22.15 26.51-32.54-2.62-10.39-22.29-23.02-22.29-23.02s38.61-55.76 40.09-66.99c1.48-11.23-8.16-15.44-20.81-7.61-12.65 7.83-37.36 37.36-37.36 37.36s-42.18-19.88-58.45-6.03c-16.27 13.86-21.46 58.38-44.54 96.76l70.44 41.07Z" fill="#d7b6a5"/><path fill="#009688" d="m110.44 321.05 87.2 38.17-31.95 105.9-122.87-2.92 67.62-141.15z"/><path fill="#B2DFDB" d="m276.32 130.52 56.74 11.3-7.72 38.78-56.75-11.3z"/><path opacity=".72" fill="#fff" d="m276.32 130.52 56.74 11.3-7.72 38.78-56.75-11.3z"/><path fill="#B2DFDB" d="m299.28 163.4 33.8-21.6-56.75-11.3z"/></svg>
